<?xml version="1.0" encoding="utf-8"?><svg viewBox="0 0 28 32" xmlns="http://www.w3.org/2000/svg" xmlns:xlink="http://www.w3.org/1999/xlink"><style>:root>svg{display:none}:root>svg:target{display:block}</style><svg viewBox="0 0 12 11" id="arrow-button" xmlns="http://www.w3.org/2000/svg"><path fill-rule="evenodd" clip-rule="evenodd" d="M6.22.386a.75.75 0 0 1 1.06 0l4.5 4.5a.75.75 0 0 1 0 1.061l-4.5 4.5a.75.75 0 1 1-1.06-1.06l3.22-3.22H.75a.75.75 0 0 1 0-1.5h8.69l-3.22-3.22a.75.75 0 0 1 0-1.06Z" fill="inherit"/></svg><svg viewBox="0 0 14 7" id="arrow-select" xmlns="http://www.w3.org/2000/svg"><path fill-rule="evenodd" clip-rule="evenodd" d="M.256.433a1.175 1.175 0 0 1 1.64-.18L7 4.295 12.104.253a1.175 1.175 0 0 1 1.64.18c.403.499.321 1.225-.182 1.624L7.73 6.677a1.176 1.176 0 0 1-1.458 0L.438 2.056A1.147 1.147 0 0 1 .256.433Z" fill="inherit"/></svg><svg fill="none" viewBox="0 0 20 14" id="eye" xmlns="http://www.w3.org/2000/svg"><path d="M17.608 5.211a2.57 2.57 0 0 1 0 3.578c-1.63 1.715-4.43 4.044-7.609 4.044-3.18 0-5.978-2.329-7.608-4.044a2.57 2.57 0 0 1 0-3.578C4.02 3.496 6.82 1.167 9.999 1.167c3.18 0 5.98 2.33 7.609 4.044Z" stroke="inherit" stroke-width="1.5"/><path d="M12.5 7a2.5 2.5 0 1 1-5 0 2.5 2.5 0 0 1 5 0Z" stroke="inherit" stroke-width="1.5"/></svg><svg viewBox="0 0 20 14" id="eyeWeakVision" xmlns="http://www.w3.org/2000/svg"><path d="M19.88 6.382C17.995 2.708 14.267.222 10 .222 5.732.222 2.003 2.71.12 6.382a1.123 1.123 0 0 0 0 1.014c1.884 3.674 5.612 6.16 9.88 6.16 4.268 0 7.997-2.488 9.88-6.16a1.122 1.122 0 0 0 0-1.014ZM10 11.889a5 5 0 1 1 0-10 5 5 0 0 1 0 10Zm0-8.333a3.31 3.31 0 0 0-.879.131A1.661 1.661 0 0 1 6.798 6.01 3.326 3.326 0 1 0 10 3.556Z" fill="inherit"/></svg><svg fill="none" viewBox="0 0 18 18" id="home" xmlns="http://www.w3.org/2000/svg"><path d="M2.25 6.75 9 1.5l6.75 5.25V15a1.5 1.5 0 0 1-1.5 1.5H3.75a1.5 1.5 0 0 1-1.5-1.5V6.75Z"/><path d="M6.75 16.5V9h4.5v7.5"/></svg><svg viewBox="0 0 12 22" id="ok" xmlns="http://www.w3.org/2000/svg"><path d="M8.185 15.76a9.979 9.979 0 0 0 3.117-1.303 1.6 1.6 0 0 0 .432-2.205 1.561 1.561 0 0 0-2.107-.484 6.747 6.747 0 0 1-7.22 0 1.56 1.56 0 0 0-2.165.499 1.596 1.596 0 0 0 .49 2.187l.002.002a9.929 9.929 0 0 0 3.113 1.302l-3 3.032a1.584 1.584 0 0 0-.023 2.22l.026.026c.297.31.7.464 1.102.464.403 0 .805-.154 1.104-.464l2.961-2.978 2.947 2.98a1.56 1.56 0 0 0 2.22-.04 1.6 1.6 0 0 0 0-2.204L8.186 15.76Zm-2.168-4.42c2.96-.004 5.358-2.427 5.362-5.42C11.38 2.934 8.973.5 6.017.5S.655 2.933.655 5.923c.004 2.992 2.403 5.416 5.362 5.418v-.001Zm0-7.663c1.226.002 2.219 1.007 2.22 2.245 0 1.239-.994 2.242-2.22 2.244-1.225-.002-2.218-1.004-2.22-2.243.002-1.24.995-2.244 2.22-2.247v.001Z" fill="inherit"/></svg><svg viewBox="0 0 20 20" id="telegram" xmlns="http://www.w3.org/2000/svg"><g clip-path="url(#ga)"><path d="m20 1.972-3.163 15.949s-.442 1.105-1.66.575l-7.332-5.612c.986-.886 8.632-7.76 8.966-8.072.517-.482.196-.77-.405-.405L5.113 11.58.756 10.112S.07 9.87.004 9.338c-.067-.53.774-.818.774-.818L18.54 1.552S20 .91 20 1.972Z" fill="inherit"/></g><defs><clipPath id="ga"><path fill="#fff" d="M0 0h20v20H0z"/></clipPath></defs></svg><svg viewBox="0 0 28 32" id="video-triangle" xmlns="http://www.w3.org/2000/svg"><path d="M25.75 18.789 4.698 30.817C2.624 32.004.043 30.505.043 28.116V4.058c0-2.39 2.581-3.888 4.656-2.702l21.05 12.029c2.091 1.194 2.091 4.209 0 5.404Z" fill="inherit"/></svg><svg viewBox="0 0 20 12" id="vk" xmlns="http://www.w3.org/2000/svg"><path d="M10.893 12C4.06 12 .163 7.495 0 0h3.423c.112 5.502 2.636 7.832 4.634 8.312V0h3.223v4.745C13.255 4.54 15.329 2.378 16.027 0h3.223c-.537 2.93-2.785 5.093-4.384 5.982 1.599.72 4.16 2.607 5.134 6.018h-3.548c-.762-2.282-2.66-4.048-5.172-4.288V12h-.387Z" fill="inherit"/></svg></svg>