<?xml version="1.0" encoding="utf-8"?><svg viewBox="0 0 28 32" xmlns="http://www.w3.org/2000/svg" xmlns:xlink="http://www.w3.org/1999/xlink"><style>:root>svg{display:none}:root>svg:target{display:block}</style><svg viewBox="0 0 12 11" id="arrow-button" xmlns="http://www.w3.org/2000/svg"><path fill-rule="evenodd" clip-rule="evenodd" d="M6.22.386a.75.75 0 0 1 1.06 0l4.5 4.5a.75.75 0 0 1 0 1.061l-4.5 4.5a.75.75 0 1 1-1.06-1.06l3.22-3.22H.75a.75.75 0 0 1 0-1.5h8.69l-3.22-3.22a.75.75 0 0 1 0-1.06Z" fill="inherit"/></svg><svg viewBox="0 0 14 7" id="arrow-select" xmlns="http://www.w3.org/2000/svg"><path fill-rule="evenodd" clip-rule="evenodd" d="M.256.433a1.175 1.175 0 0 1 1.64-.18L7 4.295 12.104.253a1.175 1.175 0 0 1 1.64.18c.403.499.321 1.225-.182 1.624L7.73 6.677a1.176 1.176 0 0 1-1.458 0L.438 2.056A1.147 1.147 0 0 1 .256.433Z" fill="inherit"/></svg><svg fill="none" viewBox="0 0 20 14" id="eye" xmlns="http://www.w3.org/2000/svg"><path d="M17.608 5.211a2.57 2.57 0 0 1 0 3.578c-1.63 1.715-4.43 4.044-7.609 4.044-3.18 0-5.978-2.329-7.608-4.044a2.57 2.57 0 0 1 0-3.578C4.02 3.496 6.82 1.167 9.999 1.167c3.18 0 5.98 2.33 7.609 4.044Z" stroke="inherit" stroke-width="1.5"/><path d="M12.5 7a2.5 2.5 0 1 1-5 0 2.5 2.5 0 0 1 5 0Z" stroke="inherit" stroke-width="1.5"/></svg><svg viewBox="0 0 20 14" id="eyeWeakVision" xmlns="http://www.w3.org/2000/svg"><path d="M19.88 6.382C17.995 2.708 14.267.222 10 .222 5.732.222 2.003 2.71.12 6.382a1.123 1.123 0 0 0 0 1.014c1.884 3.674 5.612 6.16 9.88 6.16 4.268 0 7.997-2.488 9.88-6.16a1.122 1.122 0 0 0 0-1.014ZM10 11.889a5 5 0 1 1 0-10 5 5 0 0 1 0 10Zm0-8.333a3.31 3.31 0 0 0-.879.131A1.661 1.661 0 0 1 6.798 6.01 3.326 3.326 0 1 0 10 3.556Z" fill="inherit"/></svg><svg fill="none" viewBox="0 0 18 18" id="home" xmlns="http://www.w3.org/2000/svg"><path d="M2.25 6.75 9 1.5l6.75 5.25V15a1.5 1.5 0 0 1-1.5 1.5H3.75a1.5 1.5 0 0 1-1.5-1.5V6.75Z"/><path d="M6.75 16.5V9h4.5v7.5"/></svg><svg viewBox="0 0 28 32" id="video-triangle" xmlns="http://www.w3.org/2000/svg"><path d="M25.75 18.789 4.698 30.817C2.624 32.004.043 30.505.043 28.116V4.058c0-2.39 2.581-3.888 4.656-2.702l21.05 12.029c2.091 1.194 2.091 4.209 0 5.404Z" fill="inherit"/></svg></svg>